<?xml version="1.0" encoding="utf-8"?>
<svg viewBox="45 37.26 110 125.48" xmlns="http://www.w3.org/2000/svg" xmlns:bx="https://boxy-svg.com" width="110px" height="125.48px"><defs><linearGradient id="gradient-1" bx:pinned="true"><stop style="stop-color: rgba(180, 70, 127, 0.6);" offset="0"/><stop style="stop-color: rgba(0, 51, 102, 0.6);" offset="1"/></linearGradient><linearGradient id="gradient-4"><stop style="stop-color: rgba(0, 51, 102, 0.6);" offset="0"/><stop offset="1" style="stop-color: rgba(27, 115, 57, 0.518);"/><stop style="stop-color: rgba(70, 180, 138, 0.6);" offset="1"/></linearGradient><linearGradient id="gradient-1-0" href="#gradient-1" gradientUnits="userSpaceOnUse" x1="89.435" y1="42.26" x2="89.435" y2="100"/><linearGradient id="gradient-1-7" href="#gradient-1" gradientUnits="userSpaceOnUse" x1="100" y1="42.26" x2="100" y2="100"/><linearGradient id="gradient-1-10" href="#gradient-1" gradientUnits="userSpaceOnUse" x1="75" y1="100" x2="75" y2="157.74"/><linearGradient id="color-0" gradientUnits="userSpaceOnUse" bx:pinned="true"><stop style="stop-color: rgba(161, 161, 161, 0.6)"/></linearGradient><linearGradient id="gradient-1-2" href="#gradient-1" gradientUnits="userSpaceOnUse" x1="125" y1="42.26" x2="125" y2="100"/><linearGradient id="gradient-4-1" href="#gradient-4" gradientUnits="userSpaceOnUse" x1="125" y1="100" x2="125" y2="157.74"/><bx:export><bx:file format="svg"/></bx:export><linearGradient id="gradient-4-2" href="#gradient-4" gradientUnits="userSpaceOnUse" x1="110.565" y1="100" x2="110.565" y2="157.74"/><linearGradient id="gradient-4-0" href="#gradient-4" gradientUnits="userSpaceOnUse" x1="89.435" y1="100" x2="89.435" y2="157.74"/><linearGradient id="gradient-4-3" href="#gradient-4" gradientUnits="userSpaceOnUse" x1="75" y1="100" x2="75" y2="157.74"/><linearGradient id="gradient-1-1" href="#gradient-1" gradientUnits="userSpaceOnUse" x1="75" y1="42.26" x2="75" y2="100"/><linearGradient id="gradient-1-3" href="#gradient-1" gradientUnits="userSpaceOnUse" x1="100" y1="42.26" x2="100" y2="100"/><linearGradient id="gradient-1-4" href="#gradient-1" gradientUnits="userSpaceOnUse" x1="110.565" y1="42.26" x2="110.565" y2="100"/></defs><path d="M100,42.26 L50,100 L150,100 Z" stroke-width="1" style="stroke: url(&quot;#gradient-1-7&quot;); fill: url(&quot;#gradient-1-3&quot;);"/><path d="M100,42.26 L150,100 L71.13,100 Z" stroke-width="1" style="stroke: url(&quot;#color-0&quot;); fill: url(&quot;#gradient-1-4&quot;);"/><path d="M100,42.26 L71.13,100 L50,100 Z" stroke-width="1" style="stroke: url(&quot;#color-0&quot;); fill: url(&quot;#gradient-1-1&quot;);"/><path d="M100,42.26 L128.87,100 L150,100 Z" stroke-width="1" style="stroke-linejoin: round; stroke: url(&quot;#color-0&quot;); fill: url(&quot;#gradient-1-2&quot;);"/><path d="M100,42.26 L50,100 L128.87,100 Z" style="fill: url(&quot;#gradient-1-0&quot;); paint-order: fill; stroke-linecap: round; stroke-linejoin: round; stroke: rgba(161, 161, 161, 0.6);"/><path d="M100,157.74 L50,100 L71.13,100 Z" stroke-width="1" style="stroke: url(&quot;#gradient-1-10&quot;); fill: url(&quot;#gradient-4-3&quot;);"/><path d="M100,157.74 L71.13,100 L150,100 Z" stroke-width="1" style="stroke: url(&quot;#color-0&quot;); fill: url(&quot;#gradient-4-2&quot;);"/><path d="M100,157.74 L150,100 L128.87,100 Z" stroke-width="1" style="stroke-linejoin: round; stroke: url(&quot;#color-0&quot;); fill: url(&quot;#gradient-4-1&quot;);"/><path d="M100,157.74 L128.87,100 L50,100 Z" stroke-width="1" style="stroke-linejoin: round; stroke: url(&quot;#color-0&quot;); fill: url(&quot;#gradient-4-0&quot;);"/></svg>